<svg width="25" height="25" viewBox="0 0 25 25" fill="none" xmlns="http://www.w3.org/2000/svg">
<path d="M0 8.86667C0 5.76304 0 4.21123 0.604006 3.0258C1.1353 1.98307 1.98307 1.1353 3.0258 0.604006C4.21123 0 5.76304 0 8.86667 0H15.6333C18.737 0 20.2888 0 21.4742 0.604006C22.5169 1.1353 23.3647 1.98307 23.896 3.0258C24.5 4.21123 24.5 5.76304 24.5 8.86667V15.6333C24.5 18.737 24.5 20.2888 23.896 21.4742C23.3647 22.5169 22.5169 23.3647 21.4742 23.896C20.2888 24.5 18.737 24.5 15.6333 24.5H8.86667C5.76304 24.5 4.21123 24.5 3.0258 23.896C1.98307 23.3647 1.1353 22.5169 0.604006 21.4742C0 20.2888 0 18.737 0 15.6333V8.86667Z" fill="#F6F6F6"/>
</svg>
